<mxfile host="app.diagrams.net" modified="2022-06-14T13:08:20.178Z" agent="5.0 (Windows NT 10.0; Win64; x64) AppleWebKit/537.36 (KHTML, like Gecko) Chrome/102.0.0.0 Safari/537.36" etag="i06p-bVRDZY617cJJcd5" version="20.0.1" type="github">
  <diagram id="dWNcd_lytyay8Q2ER9mk" name="Page-1">
    <mxGraphModel dx="1422" dy="697" grid="1" gridSize="10" guides="1" tooltips="1" connect="1" arrows="1" fold="1" page="1" pageScale="1" pageWidth="827" pageHeight="1169" math="0" shadow="0">
      <root>
        <mxCell id="0" />
        <mxCell id="1" parent="0" />
        <mxCell id="kHrPU3u2dFfzfTG4VTgr-9" value="" style="endArrow=none;dashed=1;html=1;rounded=0;fontFamily=Helvetica;fontSize=12;" edge="1" parent="1">
          <mxGeometry width="50" height="50" relative="1" as="geometry">
            <mxPoint x="880" y="405.47058823529414" as="sourcePoint" />
            <mxPoint x="880" y="424.52941176470586" as="targetPoint" />
          </mxGeometry>
        </mxCell>
        <mxCell id="kHrPU3u2dFfzfTG4VTgr-13" value="" style="rounded=0;whiteSpace=wrap;html=1;fontFamily=Helvetica;fontSize=12;" vertex="1" parent="1">
          <mxGeometry x="40" y="40" width="810" height="660" as="geometry" />
        </mxCell>
        <mxCell id="kHrPU3u2dFfzfTG4VTgr-14" value="1. main()" style="text;html=1;strokeColor=none;fillColor=none;align=center;verticalAlign=middle;whiteSpace=wrap;rounded=0;fontFamily=Helvetica;fontSize=12;" vertex="1" parent="1">
          <mxGeometry x="50" y="40" width="60" height="30" as="geometry" />
        </mxCell>
        <mxCell id="kHrPU3u2dFfzfTG4VTgr-15" value="" style="rounded=0;whiteSpace=wrap;html=1;fontFamily=Helvetica;fontSize=12;" vertex="1" parent="1">
          <mxGeometry x="62.5" y="80" width="330" height="120" as="geometry" />
        </mxCell>
        <mxCell id="kHrPU3u2dFfzfTG4VTgr-16" value="2. StartScreen" style="text;html=1;strokeColor=none;fillColor=none;align=center;verticalAlign=middle;whiteSpace=wrap;rounded=0;fontFamily=Helvetica;fontSize=12;" vertex="1" parent="1">
          <mxGeometry x="62.5" y="120" width="90" height="30" as="geometry" />
        </mxCell>
        <mxCell id="kHrPU3u2dFfzfTG4VTgr-17" value="3. back_music" style="rounded=0;whiteSpace=wrap;html=1;fontFamily=Helvetica;fontSize=12;" vertex="1" parent="1">
          <mxGeometry x="62.5" y="240" width="120" height="60" as="geometry" />
        </mxCell>
        <mxCell id="kHrPU3u2dFfzfTG4VTgr-18" value="4. runGame()" style="rounded=0;whiteSpace=wrap;html=1;fontFamily=Helvetica;fontSize=12;align=left;" vertex="1" parent="1">
          <mxGeometry x="62.5" y="310" width="637.5" height="210" as="geometry" />
        </mxCell>
        <mxCell id="kHrPU3u2dFfzfTG4VTgr-19" value="5. showTextScreen" style="rounded=0;whiteSpace=wrap;html=1;fontFamily=Helvetica;fontSize=12;" vertex="1" parent="1">
          <mxGeometry x="560" y="390" width="120" height="60" as="geometry" />
        </mxCell>
        <mxCell id="kHrPU3u2dFfzfTG4VTgr-20" value="4-1. drawGrid()" style="rounded=0;whiteSpace=wrap;html=1;fontFamily=Helvetica;fontSize=12;" vertex="1" parent="1">
          <mxGeometry x="150" y="320" width="90" height="50" as="geometry" />
        </mxCell>
        <mxCell id="kHrPU3u2dFfzfTG4VTgr-21" value="4-2 drawWorm()" style="rounded=0;whiteSpace=wrap;html=1;fontFamily=Helvetica;fontSize=12;" vertex="1" parent="1">
          <mxGeometry x="150" y="380" width="100" height="50" as="geometry" />
        </mxCell>
        <mxCell id="kHrPU3u2dFfzfTG4VTgr-22" value="4-3. drawApple()" style="rounded=0;whiteSpace=wrap;html=1;fontFamily=Helvetica;fontSize=12;" vertex="1" parent="1">
          <mxGeometry x="150" y="460" width="120" height="40" as="geometry" />
        </mxCell>
        <mxCell id="kHrPU3u2dFfzfTG4VTgr-23" value="4-4. drawScore()" style="rounded=0;whiteSpace=wrap;html=1;fontFamily=Helvetica;fontSize=12;" vertex="1" parent="1">
          <mxGeometry x="280" y="315" width="120" height="60" as="geometry" />
        </mxCell>
        <mxCell id="kHrPU3u2dFfzfTG4VTgr-25" value="4-5. drawPlaytime()" style="rounded=0;whiteSpace=wrap;html=1;fontFamily=Helvetica;fontSize=12;" vertex="1" parent="1">
          <mxGeometry x="280" y="390" width="120" height="60" as="geometry" />
        </mxCell>
        <mxCell id="kHrPU3u2dFfzfTG4VTgr-27" value="7. showGameOverScreen()" style="rounded=0;whiteSpace=wrap;html=1;fontFamily=Helvetica;fontSize=12;align=left;" vertex="1" parent="1">
          <mxGeometry x="62.5" y="550" width="387.5" height="130" as="geometry" />
        </mxCell>
        <mxCell id="kHrPU3u2dFfzfTG4VTgr-28" value="8. terminate()" style="rounded=0;whiteSpace=wrap;html=1;fontFamily=Helvetica;fontSize=12;" vertex="1" parent="1">
          <mxGeometry x="590" y="570" width="260" height="130" as="geometry" />
        </mxCell>
        <mxCell id="kHrPU3u2dFfzfTG4VTgr-29" value="2-1. showTextScreen()" style="rounded=0;whiteSpace=wrap;html=1;fontFamily=Helvetica;fontSize=12;" vertex="1" parent="1">
          <mxGeometry x="200" y="105" width="130" height="60" as="geometry" />
        </mxCell>
        <mxCell id="kHrPU3u2dFfzfTG4VTgr-30" value="7-1. makeTextObjs()" style="rounded=0;whiteSpace=wrap;html=1;fontFamily=Helvetica;fontSize=12;" vertex="1" parent="1">
          <mxGeometry x="260" y="580" width="120" height="60" as="geometry" />
        </mxCell>
      </root>
    </mxGraphModel>
  </diagram>
</mxfile>
